<?xml version="1.0" encoding="UTF-8"?>
<svg width="752pt" height="752pt" version="1.1" viewBox="0 0 752 752" xmlns="http://www.w3.org/2000/svg">
 <path d="m582.48 450.01-23.27-104.26c-0.72266-56.883-48.285-102.94-106.65-102.94-14.453 0-28.473 2.7852-41.668 8.2695-21.605 8.9805-48.141 8.9961-69.773 0-13.199-5.4844-27.219-8.2695-41.672-8.2695-58.363 0-105.93 46.059-106.66 102.94l-23.254 104.26c-2.4844 14.488 1.5312 29.309 11.027 40.656 9.8555 11.773 24.402 18.527 39.918 18.527 15.688 0 30.336-6.8711 40.195-18.859l39.109-55.223c4.2148-5.1289 10.551-8.0664 17.387-8.0664h117.67c6.8359 0 13.184 2.9375 17.387 8.0664l39.094 55.223c9.8555 11.988 24.496 18.859 40.191 18.859 15.523 0 30.062-6.75 39.918-18.523 9.4961-11.344 13.531-26.168 11.043-40.66zm-295.27-74.477c-8.1719 0-14.801-6.668-14.801-14.895v-14.895h-14.801c-8.1719 0-14.801-6.668-14.801-14.895 0-8.2266 6.6289-14.895 14.801-14.895h14.801v-14.895c0-8.2266 6.6289-14.895 14.801-14.895s14.801 6.668 14.801 14.895v14.895h14.801c8.1719 0 14.801 6.668 14.801 14.895 0 8.2266-6.6289 14.895-14.801 14.895h-14.801v14.895c-0.003906 8.2266-6.6289 14.895-14.801 14.895zm51.797 29.789c-12.242 0-22.199-10.023-22.199-22.344 0-12.32 9.957-22.344 22.199-22.344s22.199 10.023 22.199 22.344c0.003906 12.324-9.957 22.344-22.199 22.344zm126.09-119.16h0.16016c8.168 0 14.801 6.668 14.801 14.895s-6.6328 14.895-14.801 14.895c-8.1797 0-14.871-6.668-14.871-14.895-0.003906-8.2266 6.5469-14.895 14.711-14.895zm-52.09 119.16c-12.242 0-22.199-10.023-22.199-22.344 0-12.32 9.957-22.344 22.199-22.344s22.199 10.023 22.199 22.344c0 12.324-9.957 22.344-22.199 22.344zm22.648-59.578c-8.1797 0-14.871-6.668-14.871-14.895 0-8.2266 6.5469-14.895 14.715-14.895h0.16016c8.168 0 14.801 6.668 14.801 14.895-0.003906 8.2266-6.6367 14.895-14.805 14.895zm29.602 29.789c-8.1797 0-14.871-6.668-14.871-14.895s6.5469-14.895 14.715-14.895h0.16016c8.168 0 14.801 6.668 14.801 14.895-0.007813 8.2266-6.6406 14.895-14.805 14.895zm29.598-29.789c-8.1797 0-14.871-6.668-14.871-14.895 0-8.2266 6.5469-14.895 14.715-14.895h0.16016c8.168 0 14.801 6.668 14.801 14.895-0.003906 8.2266-6.6367 14.895-14.805 14.895z"/>
</svg>
